<svg width="13" height="15" viewBox="0 0 13 15" fill="none" xmlns="http://www.w3.org/2000/svg">
<path d="M12.687 4.35724C12.0916 3.33533 11.0636 3.25376 10.0392 3.38744C8.70588 3.56116 7.64243 4.34289 6.57679 5.24622C5.86853 4.0521 5.34982 2.78925 4.41585 1.82776C3.47102 0.854938 2.23319 0.531678 1.2956 0.99845C0.390565 1.44861 -0.184579 2.72656 0.0541588 4.0876C0.203189 4.93731 0.535273 5.75757 0.83044 6.57253C1.86642 9.43434 4.10186 11.5635 5.22538 14.3815C5.44097 14.9231 5.98717 14.8921 6.36336 14.4729C8.50188 12.0915 10.7265 9.78404 12.4866 7.06347C13.0336 6.2198 13.2094 5.25302 12.687 4.35724ZM11.4984 6.84442C10.359 8.34217 9.22678 9.84823 8.03671 11.3014C7.45289 12.0144 6.94647 12.8362 5.98355 13.3483C4.52002 10.7486 2.61807 8.4381 1.55894 5.59215C0.86371 3.72355 1.00116 2.16236 1.92572 1.96825C3.45799 1.64573 3.98829 3.02643 4.69944 4.02115C5.46702 5.09442 5.63558 6.54081 6.63828 7.56952C7.17363 5.79911 8.36081 4.9864 9.94444 4.63367C10.6607 4.47431 11.387 4.40483 11.8095 5.07176C12.1756 5.64729 11.897 6.32025 11.4984 6.84442Z" fill="#CE4236"/>
</svg>
