<svg width="32" height="23" viewBox="0 0 32 23" fill="none" xmlns="http://www.w3.org/2000/svg">
<path d="M27.7631 18.8593C27.6993 17.1954 27.2844 15.5531 26.7841 13.9723C26.3845 12.7102 25.872 11.4979 25.2849 10.3123C24.6034 8.9367 23.8325 7.60297 22.9779 6.32766C22.1686 5.11968 21.268 3.93577 20.172 2.97198C20.0349 2.85137 19.7299 3.16479 19.8629 3.28134C20.9116 4.19862 21.774 5.31655 22.562 6.45935C23.4585 7.75982 24.2487 9.13573 24.9569 10.5471C25.5223 11.6734 26.0132 12.8284 26.4072 14.0255C26.9367 15.6343 27.3726 17.315 27.441 19.014C27.4497 19.2136 27.7688 19.0046 27.7631 18.8593Z" fill="black"/>
<path d="M30.011 20.3953C30.9205 19.677 31.1365 18.4915 31.1474 17.3928C31.1612 16.009 30.8548 14.6179 30.4927 13.2899C29.8483 10.9261 28.8442 8.70947 27.6289 6.5861C26.6083 4.80293 25.449 3.03112 23.9822 1.5803C23.0985 0.706292 21.7345 -0.386755 20.4208 0.21115C20.2407 0.293089 20.153 0.671408 20.4251 0.543498C21.2136 0.172477 22.0836 0.617595 22.7291 1.07813C23.7061 1.77501 24.5039 2.72609 25.2265 3.67365C26.8579 5.81324 28.2127 8.23217 29.2355 10.7198C29.8423 12.196 30.3004 13.7575 30.5965 15.3248C30.7685 16.2343 30.8699 17.1697 30.8018 18.095C30.7466 18.842 30.5395 19.6784 29.9256 20.1643C29.7725 20.2857 29.808 20.5556 30.011 20.3953Z" fill="black"/>
<path d="M22.8433 15.2527C23.9426 16.9231 25.2228 18.5816 26.8421 19.7818C27.7015 20.4186 29 21.139 30.0093 20.3991C30.1737 20.2785 30.1353 20.0024 29.9211 20.1606C28.9671 20.8653 27.5768 19.8815 26.8302 19.3015C25.3307 18.1362 24.1111 16.6078 23.0494 15.0464C22.9858 14.9531 22.7757 15.1502 22.8433 15.2527Z" fill="black"/>
<path d="M20.4174 0.211316C18.9769 0.929289 18.7622 2.7998 18.7892 4.22845C18.8103 5.32961 19.0591 6.3986 19.3685 7.45081C19.7357 8.69963 20.1367 9.93952 20.6273 11.1456C20.6652 11.2386 20.8434 11.0977 20.8058 11.0174C20.3417 10.0217 19.9523 9.00304 19.6854 7.93649C19.4169 6.86373 19.3176 5.75743 19.2352 4.65789C19.1705 3.79794 19.18 2.9169 19.385 2.07534C19.5345 1.46148 19.8347 0.839237 20.4215 0.543394C20.5951 0.456318 20.6879 0.0763744 20.4174 0.211316Z" fill="black"/>
<path d="M17.9188 13.4789C17.2359 12.0241 16.6962 10.5129 16.2716 8.96367C15.863 7.4731 15.6429 5.9709 15.7494 4.42354C15.8008 3.67717 15.9512 2.92404 16.3736 2.29503C16.7754 1.69632 17.3839 1.26743 18.0223 0.952657C18.69 0.623552 19.4158 0.432363 20.1573 0.382064C20.9437 0.328791 21.7658 0.388283 22.4765 0.748486C22.5251 0.773095 22.6268 0.662221 22.5776 0.629499C21.2523 -0.252891 19.6987 -0.114162 18.2876 0.471845C16.8665 1.06191 15.78 2.17389 15.4555 3.69745C15.1101 5.31945 15.3186 7.0415 15.6834 8.63835C16.0912 10.4234 16.6767 12.1536 17.4531 13.8124C17.5659 14.0541 18.0148 13.6836 17.9188 13.4789Z" fill="black"/>
<path d="M30.9775 17.8115C30.9283 20.2137 28.756 22.5475 26.2843 22.3801C25.0817 22.2987 24.0273 21.5253 23.1439 20.77C22.0173 19.807 21.0638 18.6347 20.2071 17.4311C20.0748 17.245 19.65 17.6431 19.7925 17.8456C20.7241 19.1685 21.7777 20.4233 23.0479 21.4349C24.0555 22.2378 25.2783 22.8087 26.5904 22.6838C28.9272 22.4617 31.0873 20.1515 31.03 17.7861C31.0289 17.7534 30.978 17.7886 30.9775 17.8115Z" fill="black"/>
<path d="M29.9408 19.3431C30.871 18.6057 31.0165 17.3523 30.9787 16.2408C30.9313 14.8633 30.5895 13.4914 30.1917 12.1785C29.47 9.79746 28.3304 7.55944 26.9977 5.46447C26.154 4.13805 25.2038 2.81378 24.0034 1.78509C23.254 1.14257 22.2156 0.515187 21.2177 0.967064C21.0374 1.04873 20.95 1.42706 21.2221 1.29942C22.0314 0.9192 22.9246 1.47762 23.5466 1.97006C24.5269 2.74591 25.319 3.76405 26.0372 4.77787C27.5153 6.86337 28.7885 9.19388 29.616 11.6174C30.0525 12.8962 30.4129 14.2146 30.583 15.5569C30.7239 16.6668 30.8434 18.3274 29.8553 19.1125C29.7025 19.2336 29.7379 19.5038 29.9408 19.3431Z" fill="black"/>
<path d="M23.3624 14.5773C24.3768 16.1365 25.5618 17.6871 27.0705 18.8007C27.8571 19.3811 29.0294 20.0182 29.9486 19.3475C30.1135 19.2272 30.0749 18.9514 29.8604 19.109C28.9729 19.7621 27.6694 18.8051 26.9885 18.2642C25.6342 17.1893 24.5296 15.7982 23.5666 14.3734C23.5038 14.2809 23.2964 14.4756 23.3624 14.5773Z" fill="black"/>
<path d="M21.2208 0.967869C19.9758 1.59147 19.7276 3.1537 19.7189 4.40765C19.7054 6.46016 20.5475 8.37936 21.1424 10.3067C21.1703 10.3967 21.3598 10.2626 21.3187 10.1804C20.4772 8.49861 20.2449 6.57131 20.1473 4.71674C20.0907 3.64127 20.0924 1.87324 21.2249 1.29968C21.3982 1.21233 21.491 0.832387 21.2208 0.967869Z" fill="black"/>
<path d="M16.7901 11.2407C14.4658 11.57 12.2443 12.2253 10.0671 13.0958C7.88127 13.9692 5.63649 15.0263 3.85034 16.5872C3.6478 16.7643 3.83791 16.9463 4.03586 16.7727C5.76332 15.2581 7.96078 14.2526 10.0712 13.3978C12.2167 12.5287 14.4177 11.8897 16.7106 11.5603C16.8626 11.5384 17.0267 11.2071 16.7901 11.2407Z" fill="black"/>
<path d="M15.7791 7.6187C13.0216 7.97538 10.3917 8.79017 7.84295 9.88944C6.57846 10.4349 5.34262 11.0547 4.17628 11.7878C3.23899 12.3768 2.31117 13.0623 1.63403 13.949C1.17837 14.5459 0.866842 15.3036 1.09319 16.0529C1.15052 16.243 1.5137 15.9645 1.45826 15.7914C1.19081 14.9564 1.72273 14.1832 2.27548 13.6034C3.12028 12.7178 4.19954 12.0504 5.26122 11.4584C7.59497 10.1574 10.1529 9.1428 12.7427 8.48432C13.7136 8.23742 14.7066 8.06787 15.6993 7.93779C15.8521 7.91805 16.0162 7.58814 15.7791 7.6187Z" fill="black"/>
<path d="M22.4138 8.96709C21.9995 8.2813 21.3048 7.92191 20.5536 7.7099C20.4065 7.66852 20.1699 7.9741 20.3318 8.01953C21.0328 8.2164 21.7164 8.54361 22.1066 9.18695C22.1994 9.34055 22.489 9.09176 22.4138 8.96709Z" fill="black"/>
<path d="M1.08641 16.0525C1.48231 17.2118 2.78142 17.6921 3.87907 17.9098C5.64737 18.2605 7.44163 18.015 9.19694 17.7051C12.5835 17.1074 15.8339 15.9273 18.7437 14.0768C19.9108 13.3345 21.0666 12.461 21.903 11.3458C22.3939 10.6911 22.8501 9.75869 22.4125 8.96338C22.3236 8.80194 22.0212 9.05776 22.0951 9.19053C22.5342 9.97855 22.0128 10.8404 21.518 11.4618C20.6669 12.5303 19.4963 13.3567 18.3516 14.0795C16.8821 15.0073 15.298 15.758 13.673 16.3697C11.9193 17.0301 10.0618 17.5734 8.18448 17.6962C6.75448 17.7897 5.21766 17.7624 3.81741 17.4341C2.8758 17.2134 1.796 16.781 1.45148 15.791C1.38469 15.5993 1.02854 15.8832 1.08641 16.0525Z" fill="black"/>
<path d="M20.4863 7.87812C21.9855 8.33352 23.1856 9.55854 23.7105 11.0215C24.2516 12.5302 23.7519 14.0457 22.7216 15.1998C21.6926 16.3524 20.3738 17.2421 19.0403 18.0028C17.4186 18.9276 15.6827 19.6583 13.9017 20.2146C12.4736 20.6608 11.0071 20.9609 9.52628 21.1678C7.94133 21.3893 6.35206 21.4198 4.78063 21.0799C4.03859 20.9196 3.32224 20.6575 2.7465 20.1499C2.1916 19.6605 1.8276 18.995 1.58125 18.3062C1.09692 16.9508 1.03094 15.1122 1.90468 13.8975C1.96795 13.8096 1.86005 13.8028 1.81003 13.8623C0.714 15.1744 0.655053 16.9273 1.15561 18.4949C1.39736 19.2516 1.81219 19.9587 2.39441 20.5017C3.02883 21.0934 3.87823 21.3582 4.70951 21.5315C6.44238 21.8933 8.17768 21.7776 9.91732 21.5367C11.7045 21.289 13.4458 20.8482 15.1395 20.2254C16.8323 19.6031 18.4654 18.8257 19.9935 17.8667C21.2142 17.1009 22.4041 16.1855 23.2784 15.0281C24.1486 13.8767 24.4253 12.5326 23.975 11.1524C23.5242 9.77109 22.4433 8.58907 21.1218 7.99441C20.9368 7.91085 20.744 7.84622 20.5487 7.79024C20.5079 7.77807 20.4398 7.86406 20.4863 7.87812Z" fill="black"/>
<path d="M15.8175 7.6035C13.0157 7.90745 10.3477 8.72791 7.77783 9.86964C6.54254 10.4186 5.33051 11.0471 4.21745 11.8172C3.3932 12.3876 2.53757 13.0852 2.08975 14.0044C1.88396 14.4268 1.81284 14.9028 1.94832 15.3565C2.00484 15.5461 2.3691 15.2686 2.31339 15.095C2.03702 14.2345 2.68982 13.4582 3.27258 12.9049C4.19743 12.0268 5.347 11.3773 6.47413 10.7988C8.83844 9.58597 11.3942 8.64516 14.0124 8.17138C14.5587 8.07268 15.1082 7.99344 15.6596 7.93287C15.8045 7.91664 16.012 7.5824 15.8175 7.6035Z" fill="black"/>
<path d="M21.3622 8.89148C21.2051 8.62485 21.0009 8.40661 20.7492 8.22705C20.6145 8.13105 20.35 8.41554 20.4733 8.50289C20.7051 8.66676 20.909 8.86607 21.0545 9.11161C21.1461 9.26575 21.4366 9.0175 21.3622 8.89148Z" fill="black"/>
<path d="M1.94775 15.3564C2.35338 16.5382 3.74444 16.9392 4.84993 17.1134C6.64797 17.3968 8.51281 17.0312 10.277 16.6812C13.4824 16.0455 16.7223 14.6761 19.3022 12.6514C20.012 12.0941 20.7143 11.448 21.1708 10.6597C21.4793 10.127 21.6832 9.46554 21.3676 8.88927C21.2792 8.72756 20.9766 8.98365 21.0502 9.11643C21.5045 9.93365 20.8398 10.836 20.3054 11.4277C19.3295 12.5089 18.0633 13.3372 16.8045 14.0492C15.2466 14.93 13.5822 15.6217 11.8725 16.1455C11.0121 16.4092 10.1289 16.6326 9.23619 16.7507C8.27511 16.8778 7.31132 16.8692 6.34509 16.8154C5.02597 16.7418 2.84122 16.6017 2.31281 15.0947C2.24548 14.9027 1.88988 15.1872 1.94775 15.3564Z" fill="black"/>
<path d="M19.9936 3.2627C19.5366 4.36062 19.7965 5.7241 20.0072 6.85041C20.1216 7.46238 20.2711 8.06813 20.4347 8.66901C20.5231 8.99243 20.6305 9.30423 20.7568 9.61467C20.8685 9.88834 20.9666 10.201 21.1513 10.4332C21.2238 10.5244 21.4025 10.344 21.3893 10.2621C21.3028 9.72095 20.9653 9.21742 20.8138 8.68712C20.6424 8.0876 20.4958 7.48104 20.3698 6.87042C20.2438 6.25872 20.1362 5.6427 20.0945 5.01883C20.0558 4.43932 20.1632 3.81194 20.0439 3.24432C20.0385 3.21755 19.9977 3.25216 19.9936 3.2627Z" fill="black"/>
<path d="M20.9852 8.70258C21.4438 9.49357 21.2499 10.2678 20.7507 10.9914C20.3002 11.6442 19.7285 12.1978 19.0957 12.6724C18.4364 13.1667 17.712 13.5515 16.9837 13.932C16.1876 14.3479 15.3779 14.7384 14.5518 15.0911C12.9157 15.789 11.2004 16.2371 9.45648 16.5695C8.59383 16.7339 7.7301 16.8172 6.85284 16.8426C5.93665 16.8691 5.03804 16.6471 4.12942 16.7258C4.10156 16.7282 4.00935 16.7972 4.05586 16.8277C4.1981 16.9207 4.32412 17.0186 4.48556 17.0724C4.69838 17.1433 4.9396 17.1544 5.16026 17.182C5.65433 17.2436 6.15055 17.2601 6.64786 17.2688C7.59002 17.2855 8.53758 17.1533 9.46594 17.0054C11.3862 16.6995 13.2521 16.1127 15.0277 15.3261C16.6898 14.5894 18.4251 13.7692 19.8058 12.5672C20.7304 11.7624 22.2607 9.82349 21.0184 8.67419C21.0063 8.66283 20.9776 8.68879 20.9852 8.70258Z" fill="black"/>
<path d="M21.3018 9.49212C21.2732 9.39666 21.2486 9.30336 21.2115 9.21034C21.1455 9.04538 21.0809 8.94505 20.9216 8.86636C20.8721 8.84202 20.8016 8.90314 20.8048 8.95316C20.8162 9.10812 20.8472 9.22332 20.9 9.37097C20.9278 9.44966 20.9481 9.53079 20.9649 9.61246C20.9825 9.69602 20.9449 9.77254 20.9768 9.85448C21.0498 10.0427 21.3059 9.81906 21.3356 9.70602C21.3594 9.61435 21.327 9.57649 21.3018 9.49212Z" fill="black"/>
<path d="M18.1844 6.34614C18.1455 5.88832 18.0343 5.44103 18.0116 4.97807C17.9816 4.35934 18.0057 3.73169 18.0698 3.11567C18.1341 2.49532 18.2685 1.87145 18.5622 1.31681C18.7007 1.05585 18.8921 0.82437 19.1285 0.647243C19.371 0.465518 19.6764 0.380608 19.94 0.233768C19.9533 0.226466 19.9909 0.187522 19.9614 0.176164C19.4568 -0.0212446 18.8543 0.558816 18.5679 0.919019C18.1609 1.43093 17.9665 2.09806 17.8556 2.73194C17.7353 3.4207 17.7404 4.11542 17.8158 4.80852C17.8678 5.28933 17.8907 5.947 18.1255 6.3813C18.1412 6.41023 18.1863 6.36886 18.1844 6.34614Z" fill="black"/>
<path d="M17.0263 4.27002C17.0888 3.97147 17.0864 3.67103 17.095 3.36708C17.1061 2.97605 17.1618 2.61287 17.2748 2.23914C17.3868 1.86947 17.5561 1.51927 17.7743 1.20099C17.9771 0.905143 18.2546 0.745864 18.5337 0.536015C18.545 0.527362 18.5691 0.490858 18.5396 0.488695C17.9352 0.448672 17.4936 1.28266 17.2865 1.74048C16.9176 2.55797 16.9133 3.41359 16.9649 4.29273C16.9668 4.33249 17.022 4.29111 17.0263 4.27002Z" fill="black"/>
<path d="M16.7534 8.505C16.6687 7.89926 16.4903 7.31568 16.454 6.70128C16.4124 5.99737 16.3567 5.29211 16.3672 4.58657C16.3872 3.28259 16.7163 1.76443 17.808 0.920173C17.8394 0.895835 17.8562 0.814439 17.795 0.84689C17.1866 1.17032 16.7896 1.60353 16.4981 2.22983C16.1917 2.88777 16.0708 3.62089 16.0227 4.33968C15.9718 5.10038 16.024 5.85864 16.1814 6.60366C16.315 7.23645 16.4278 7.94766 16.6941 8.53962C16.7077 8.56964 16.7563 8.52745 16.7534 8.505Z" fill="black"/>
<path d="M17.0674 5.20956C16.9765 5.5722 17.073 5.97973 17.1807 6.32966C17.1891 6.35697 17.2288 6.31641 17.2296 6.30072C17.2477 5.93916 17.1799 5.54705 17.1217 5.18982C17.1158 5.15521 17.072 5.1909 17.0674 5.20956Z" fill="black"/>
<path d="M23.4975 20.3705C23.0196 19.7764 22.4823 19.2361 22.0126 18.6322C21.7876 18.3434 21.581 18.0402 21.3749 17.7379C21.2457 17.5486 21.1259 17.3534 21.0096 17.156C20.9298 17.0207 20.942 17.0237 20.7903 17.0094C20.7708 17.0075 20.7511 17.0299 20.7467 17.0467C20.6751 17.3171 20.8884 17.5267 21.0312 17.7498C21.2497 18.0908 21.4958 18.4075 21.7519 18.7206C22.2451 19.3231 22.8155 19.9621 23.4483 20.42C23.4715 20.4367 23.5159 20.3935 23.4975 20.3705Z" fill="black"/>
<path d="M24.0107 18.2662C23.7898 17.8287 23.5001 17.4163 23.2403 17.0004C22.9855 16.5926 22.7454 16.111 22.4028 15.7716C22.3552 15.7245 22.2437 15.8295 22.2721 15.883C22.4809 16.2811 22.7803 16.6451 23.0261 17.0226C23.31 17.4585 23.5875 17.9428 23.9653 18.3046C23.982 18.3209 24.0199 18.2852 24.0107 18.2662Z" fill="black"/>
<path d="M22.879 18.2499C22.6673 17.9844 22.4518 17.7299 22.2625 17.447C22.0632 17.1488 21.9225 16.7366 21.6686 16.486C21.6337 16.4519 21.5742 16.5241 21.5829 16.559C21.6594 16.8735 21.9155 17.1842 22.0961 17.4516C22.303 17.7575 22.5334 18.0747 22.8252 18.304C22.8498 18.3235 22.8988 18.2748 22.879 18.2499Z" fill="black"/>
<path d="M19.2977 10.0364C19.4124 10.3996 19.5592 10.7479 19.7061 11.0989C19.7875 11.2939 19.8591 11.4929 19.9327 11.6909C19.9995 11.8715 19.9708 11.9364 20.1388 12.0205C20.1761 12.0392 20.2315 11.9826 20.2364 11.9497C20.2815 11.6462 20.0449 11.3723 19.9059 11.107C19.7139 10.7406 19.546 10.3628 19.3532 9.99692C19.3378 9.96772 19.2899 10.0121 19.2977 10.0364Z" fill="black"/>
<path d="M18.3971 10.9058C18.4964 11.2711 18.6302 11.617 18.7776 11.9653C18.886 12.2217 18.9764 12.6735 19.2124 12.8288C19.2357 12.8442 19.2638 12.8123 19.2657 12.7901C19.2938 12.474 19.0505 12.1457 18.9136 11.8674C18.7519 11.5378 18.5934 11.2046 18.4523 10.8658C18.4398 10.836 18.3904 10.8812 18.3971 10.9058Z" fill="black"/>
<path d="M17.3521 10.7289C17.474 11.2113 17.6406 11.6743 17.831 12.1337C17.924 12.359 18.0197 12.5826 18.1122 12.8082C18.1955 13.0112 18.2039 13.2514 18.4275 13.326C18.457 13.336 18.497 13.3006 18.5011 13.2725C18.5292 13.0902 18.4986 13.0345 18.3937 12.8704C18.2466 12.6408 18.123 12.4004 18.0078 12.1535C17.785 11.6762 17.5879 11.1859 17.4024 10.6929C17.3918 10.6651 17.3464 10.7064 17.3521 10.7289Z" fill="black"/>
<path d="M26.9307 12.5C27.305 13.6076 27.6595 14.7169 27.911 15.86C28.0454 16.4709 28.1868 17.0966 28.2147 17.7232C28.238 18.25 28.1311 18.7903 28.1706 19.3109C28.1882 19.5415 28.4881 19.2922 28.5192 19.183C28.3715 19.3579 28.3448 19.4028 28.4386 19.3171C28.4651 19.2909 28.4865 19.2611 28.5027 19.2281C28.5538 19.121 28.5562 18.9955 28.5671 18.8798C28.5922 18.6143 28.5662 18.3403 28.536 18.0764C28.4657 17.4612 28.3669 16.8443 28.2436 16.2375C27.9816 14.9479 27.5511 13.6477 26.9908 12.457C26.9759 12.4248 26.9215 12.4729 26.9307 12.5Z" fill="black"/>
<path d="M28.8499 15.4834C28.9991 16.1803 29.1568 16.8734 29.2258 17.5841C29.2593 17.9283 29.2639 18.2745 29.2431 18.6198C29.2263 18.8956 29.0708 19.2174 29.1289 19.4851C29.1476 19.5711 29.2804 19.4743 29.3009 19.4421C29.4567 19.2009 29.4556 18.9016 29.4651 18.6203C29.4775 18.2442 29.4513 17.8723 29.4013 17.4997C29.3074 16.8039 29.1279 16.1135 28.8929 15.4526C28.8842 15.4291 28.8461 15.4648 28.8499 15.4834Z" fill="black"/>
<path d="M30.0274 16.5633C30.0512 17.0141 30.1369 17.4638 30.162 17.9176C30.1774 18.1983 30.2012 18.4538 30.1458 18.7337C30.1163 18.8846 30.0103 19.0003 30.0893 19.1439C30.1063 19.1742 30.1466 19.1453 30.1601 19.1264C30.3794 18.8108 30.3689 18.3324 30.3373 17.9657C30.2986 17.5182 30.287 16.9405 30.0709 16.5373C30.0593 16.5154 30.0265 16.5465 30.0274 16.5633Z" fill="black"/>
<path d="M29.6582 15.1486C29.6745 15.3636 29.7118 15.5834 29.8556 15.7514C29.8713 15.7695 29.9065 15.7332 29.9043 15.7165C29.8773 15.5034 29.8397 15.2862 29.7212 15.1032C29.7042 15.0764 29.6569 15.1288 29.6582 15.1486Z" fill="black"/>
<path d="M24.7641 4.14219C24.4452 3.38231 23.7405 2.7433 23.1664 2.17676C22.8241 1.839 22.4336 1.53099 22.0104 1.29978C21.728 1.14564 21.2802 0.951745 20.9798 1.14753C20.936 1.1762 20.8624 1.27139 20.9143 1.32304C21.0057 1.41417 21.1845 1.38361 21.3035 1.40525C21.5036 1.44175 21.6931 1.52423 21.8765 1.60941C22.3094 1.81061 22.6948 2.09942 23.0683 2.39418C23.7016 2.89447 24.2468 3.52888 24.7211 4.1787C24.7341 4.19682 24.7711 4.1595 24.7641 4.14219Z" fill="black"/>
<path d="M22.5361 4.54536C22.3057 4.07807 21.9939 3.66 21.6683 3.25544C21.323 2.82628 20.9176 2.41037 20.3617 2.27624C20.2419 2.2473 20.1423 2.33303 20.0712 2.41902C19.8711 2.66159 20.4812 2.76192 20.6018 2.81546C20.8982 2.94689 21.1983 3.13645 21.4412 3.34955C21.8506 3.70867 22.1416 4.1719 22.4907 4.58403C22.5056 4.60161 22.5451 4.56348 22.5361 4.54536Z" fill="black"/>
<path d="M22.8439 3.4451C22.6208 2.96807 22.3179 2.46806 21.932 2.10812C21.6291 1.82553 21.068 1.40286 20.6213 1.61703C20.4412 1.70357 20.3249 1.97156 20.6791 1.93018C20.989 1.89422 21.3211 2.05918 21.5637 2.23279C22.0394 2.57352 22.4555 3.01188 22.7868 3.49377C22.803 3.5173 22.855 3.46835 22.8439 3.4451Z" fill="black"/>
<path d="M22.6219 11.4865C22.1351 12.1096 21.6137 12.6602 21.0096 13.1713C20.5017 13.6007 19.8703 13.9839 19.5001 14.5464C19.4839 14.571 19.4928 14.5985 19.5252 14.5853C20.1897 14.3124 20.7765 13.7099 21.2998 13.2286C21.8309 12.7402 22.3587 12.1555 22.6578 11.4927C22.6713 11.4619 22.634 11.4708 22.6219 11.4865Z" fill="black"/>
<path d="M22.4538 12.9126C22.1842 13.126 21.9716 13.4081 21.7455 13.6652C21.4935 13.9516 21.2439 14.2296 21.0046 14.5265C20.977 14.5606 21.0092 14.5868 21.0424 14.5641C21.3659 14.3424 21.6268 14.1014 21.8886 13.8083C22.1217 13.5473 22.378 13.2636 22.4927 12.9278C22.5019 12.9007 22.4681 12.9013 22.4538 12.9126Z" fill="black"/>
<path d="M22.3158 14.045C22.1181 14.1732 21.9961 14.3655 21.8609 14.5518C21.8415 14.5786 21.8636 14.597 21.8893 14.5802C22.0848 14.4552 22.2844 14.3054 22.3682 14.0786C22.3845 14.035 22.3501 14.0228 22.3158 14.045Z" fill="black"/>
<path d="M5.17417 18.8541C4.32315 18.6012 3.45697 18.3806 2.67545 17.9436C1.84444 17.4792 1.31144 16.6052 1.19462 15.6693C1.18786 15.6144 1.11241 15.6696 1.10727 15.7015C1.02344 16.2115 1.00586 16.7248 1.24681 17.1934C1.45233 17.5928 1.7809 17.9087 2.1576 18.1458C3.0408 18.7024 4.12006 18.8744 5.14956 18.8949C5.16389 18.8954 5.19634 18.8606 5.17417 18.8541Z" fill="black"/>
<path d="M3.7213 19.4598C3.14665 19.1959 2.58228 18.9801 2.09119 18.5674C1.56792 18.1274 1.38268 17.5141 1.10901 16.9159C1.09008 16.8743 1.03329 16.9357 1.03194 16.9619C0.958928 18.4652 2.4111 19.237 3.69074 19.5025C3.70886 19.5063 3.7451 19.4706 3.7213 19.4598Z" fill="black"/>
<path d="M8.47335 20.5636C7.3081 20.4622 6.13527 20.4387 4.97921 20.2472C3.69822 20.0352 2.19494 19.4936 1.48264 18.3345C1.45749 18.294 1.38988 18.3562 1.40178 18.3924C1.86718 19.8094 3.26392 20.3259 4.61225 20.5763C5.8854 20.8124 7.17775 20.7824 8.45604 20.6099C8.47335 20.6077 8.50229 20.5663 8.47335 20.5636Z" fill="black"/>
<path d="M6.54888 18.8627C6.82904 18.9266 7.16085 18.8319 7.42883 18.7538C7.44533 18.7489 7.47886 18.7102 7.44668 18.7048C7.15543 18.6556 6.83769 18.7202 6.56375 18.8219C6.55483 18.8252 6.52779 18.8579 6.54888 18.8627Z" fill="black"/>
<path d="M5.37098 14.5875C4.94641 14.8666 4.53591 15.1868 4.11837 15.4799C3.92556 15.6152 3.74411 15.7642 3.57536 15.9283C3.45665 16.044 3.24436 16.2058 3.26735 16.3905C3.27222 16.4302 3.31116 16.4394 3.34388 16.4205C3.50479 16.328 3.56455 16.1765 3.68543 16.0384C3.86932 15.8277 4.1016 15.6592 4.32551 15.494C4.68085 15.2322 5.14436 14.9848 5.39045 14.6073C5.40234 14.5889 5.38937 14.5756 5.37098 14.5875Z" fill="black"/>
<path d="M4.66725 12.4234C4.01769 12.6727 3.42493 13.2517 2.97359 13.7641C2.74508 14.0238 2.55038 14.3074 2.39245 14.6146C2.29186 14.8096 2.0812 15.195 2.23291 15.3991C2.24399 15.4143 2.27239 15.3918 2.27834 15.3821C2.42382 15.1493 2.45816 14.8667 2.57363 14.6171C2.72805 14.2834 2.95845 13.9821 3.19913 13.7065C3.6318 13.2117 4.15615 12.8588 4.67509 12.4675C4.69537 12.4518 4.70538 12.4088 4.66725 12.4234Z" fill="black"/>
<path d="M3.77223 14.3406C3.46368 14.4893 3.19407 14.7963 2.97259 15.0488C2.76328 15.2874 2.53639 15.6075 2.56262 15.9418C2.56533 15.9734 2.58561 16.0042 2.62212 16.001C2.69784 15.9942 2.74165 15.9615 2.77681 15.8882C2.8079 15.8236 2.79167 15.733 2.80249 15.6646C2.82196 15.5424 2.88903 15.4261 2.95339 15.3228C3.17919 14.9585 3.56914 14.7311 3.79414 14.3749C3.80685 14.3547 3.80117 14.3268 3.77223 14.3406Z" fill="black"/>
<path d="M4.46211 13.878C4.69306 13.7871 4.88884 13.6746 5.07571 13.511C5.0849 13.5029 5.10113 13.4645 5.07463 13.4674C4.81962 13.4956 4.64546 13.677 4.45427 13.832C4.43426 13.8482 4.42182 13.8939 4.46211 13.878Z" fill="black"/>
</svg>
